<svg xmlns="http://www.w3.org/2000/svg" version="1.1" xmlns:xlink="http://www.w3.org/1999/xlink" xmlns:svgjs="http://svgjs.dev/svgjs" width="2000" height="2250" viewBox="0 0 2000 2250"><g transform="matrix(1,0,0,1,0.00014687500004129106,0)"><svg viewBox="0 0 320 360" data-background-color="#fdfefc" preserveAspectRatio="xMidYMid meet" height="2250" width="2000" xmlns="http://www.w3.org/2000/svg" xmlns:xlink="http://www.w3.org/1999/xlink"><g id="tight-bounds" transform="matrix(1,0,0,1,0.000023499999997511622,0)"><svg viewBox="0 0 320 360" height="360" width="320"><g><svg></svg></g><g><svg viewBox="0 0 320 360" height="360" width="320"><g><path transform="translate(-74.99272,-51.79039) scale(4.65793,4.65793)" d="M20.6 59.9l0.8 1-0.4-1.3c-0.1-0.6-0.8 0.1-0.4 0.3M21.5 59.3c0.3 0.5 0.6 1 0.6 1.5 0 0.7 0.6 1 1.1 1.2-0.7-0.8-1.1-3-1.7-2.7M59.9 16.9c1.7 0 3.3-0.2 5.1 0.2 4.4 1.1 8.1 3.3 10.6 6.4l7 11.2c0.3 2.8 0.9 5.9 0.8 9.3 0.7 0 0.6-1 1.4-1.2-0.8 2-1.2 4.5-1.4 7.4-0.5-1.6 0-4 0.1-5.3-0.7 1.1-1.1 0.3-1.1-0.2 0.1-0.8-0.3-0.7-0.6-1-1.1-1-1.8-2.1-2.6-3.8 0.5-1.3 0.6-3.2-1-4.2-0.5-0.3-1.1-0.8-1.4-1.6-0.4-1.1-1.1-2.4-0.9-4.1 0.1-0.5-1.5 1.1-2.4 0.4-3.9-2.7-7.8-5.8-12.5-8.4-2.5 0-4.3-0.9-5.2-2-0.8-1-0.2-2.3 1-2.4 0.7 0 1.5-0.2 2.1 0.2 0.1-0.4 0.5-0.9 1-0.9M50 14.6l0.2 0.1c1 0.2 1.5 1.6 2.6 1.1 0 0.7 0.1 1.4-0.1 1.9-0.3 0.8-1.2 0.8-1.9 0.8-6.7-0.4-10.6 2.4-14.7 4.8-1.1 0.7-2.3 1.2-3.2 2.1-4.3 4-9 7.7-10.1 15.1l-0.9 8.2c-0.1 0.9-1.1 1.8-0.9 2.9l0.7 4.9c-0.7-0.7-1.1 0.2-0.9 0.6 0.1 0.3 0.5 1.3 1.1 0.4 0.8 1.5 1.6 4.4 2.7 5.7 3.4 4 7.8 7.6 11.4 11.2 0.9-0.2 1.6-0.2 1.8-0.8 0.3 0.6-0.3 1.2-0.8 1.3 1.6 1 3.4 1.9 5.8 2.1 3.1 0.2 6 0.7 8.7 1.4 1.4-0.4 2.8-0.6 4.3-0.7 0.5 0 0.8-0.8 1.4-1l0.1-1c0.6 0.9 0.5-0.3 0.1-0.9 0.7 0.6 0.9 1.1 1.2 1.5 0-0.3 0.8-1.4 0.8-0.1l0.2-1.3c0.3-0.2 0.4 1.1 0.7 0.2 0.3-0.9 0.9-0.2 1.5-0.5-0.2 0.4-0.1 1.2 0.6 0.7l0.8-0.7c0.5 1.2 1.3 0.7 1.7 0.5 4.4-2.8 8.8-6.1 13-9.4l-0.1 1.3 0.5-1.6c0.5 0.5 0.9 0.1 1.1-0.2 0.6-1 1.4-2 2.7-2.9-1.6 4.3-3.5 7.7-5.9 10.5l-1 1.2c0 0.7-0.2 1.6-1 1.7-0.4 0.1-1.2-0.2-1.8 0.4-0.3 0.4 0.7 1.2-0.1 0.6-0.7-0.5-1.4 0-2.2 0.2-0.6 0.2 0.4 0.8 0.6 1.2 0.2 0.4 0.4 0.8 0.3 1.3l-1.1-1.2c-1.3 0.7-2.1 2-3.2 3-0.5 0.4-0.3 1.1-0.3 1.7-0.7 0-1.5-0.2-1.9 0.2-0.3 0.4-0.2 1-0.2 1.6-1-0.1-1.1-1.6-2-1.3-0.9 0.2-1.9 0.3-2.7 0.8 0.6 1.2-1 0.5-0.8 0.7-1.5-0.9-2.8-1.6-4.4-1-3.4-1.1-7.6-0.6-10.7-0.2 0-0.5 0.1-1-0.1-1.1-0.2 0.5-0.8 0.3-0.7 0.3-1.9-1.3-3.8-2.1-5.8-3.2-1.8 0.2-3.5-0.7-4-1.2-1.4-1.3-3-0.6-4.3-0.9-2.8-0.7-3.8-3.6-4.1-5.6-0.2-1-1-1.4-1.3-1.3-1.3-4.2-3.3-8-4.9-11.9-0.4-1-0.3-2-0.3-3.1 0.5 0.2 1 0.1 0.9-0.6-0.5-3.3-1.7-5.8-3-8.2 0.7-3.4 0.8-7.4 2.4-10.4 1.4-2.7 4-4.1 5.8-6.4 0.6-0.8 0.6-1.9 1.2-2.6 2-2 4-4.1 6.2-5.9 1-0.8 2.2 0 3.7-0.3 0.5-1.8 2.5-3.4 4.4-2.9 0.8 0.2 2.4-1.9 2.9-2.1 0.8-0.3 0.4 0.8 0.4 1.5 1.9-1.5 4.5-2.3 6.9-3.2" fill="#0e7355" fill-rule="nonzero" stroke="none" stroke-width="1" stroke-linecap="butt" stroke-linejoin="miter" stroke-miterlimit="10" stroke-dasharray="" stroke-dashoffset="0" font-family="none" font-weight="none" font-size="none" text-anchor="none" style="mix-blend-mode: normal" data-fill-palette-color="tertiary"></path></g><g transform="matrix(1,0,0,1,64.00000000000001,103.43011063258015)"><svg viewBox="0 0 191.99999999999997 153.1397787348397" height="153.1397787348397" width="191.99999999999997"><g><svg viewBox="0 0 191.99999999999997 153.1397787348397" height="153.1397787348397" width="191.99999999999997"><g><svg viewBox="0 0 192.00000000000003 153.13977873483972" height="153.1397787348397" width="191.99999999999997"><g transform="matrix(1,0,0,1,0,91.70648085108743)"><svg viewBox="0 0 192.00000000000003 61.43329788375229" height="61.43329788375229" width="192.00000000000003"><g id="textblocktransform"><svg viewBox="0 0 192.00000000000003 61.43329788375229" height="61.43329788375229" width="192.00000000000003" id="textblock"><g><svg viewBox="0 0 192.00000000000003 46.63840886860124" height="46.63840886860124" width="192.00000000000003"><g transform="matrix(1,0,0,1,0,0)"><svg width="192.00000000000003" viewBox="2.4 -35.75 153.34 37.25" height="46.63840886860124" data-palette-color="#0a3f31"><path d="M9.4 0.9L2.8 0.3Q2.4-12.7 2.4-19.3 2.4-25.9 3.25-33.4L3.25-33.4 12.65-32.65Q14.4-26.35 16.35-15L16.35-15Q19.15-24.15 21.3-34.8L21.3-34.8 30.75-33.95Q31.15-18.5 31.15-11.38 31.15-4.25 30.7 1.3L30.7 1.3 23.85 0.65Q24.5-5.65 24.95-26.05L24.95-26.05 24.55-26.1Q24.05-24.15 22.95-19.4L22.95-19.4Q20.65-9.55 18.5-2.6L18.5-2.6 13.95-3Q12.75-7.8 11.18-15.43 9.6-23.05 8.75-26.65L8.75-26.65 8.35-26.7Q8.8-10 9.4 0.9L9.4 0.9ZM41.7-3.6L41.7-3.6Q43.6-3.6 45.75-7.25L45.75-7.25 49.55-5Q48.6-3.35 47.72-2.2 46.85-1.05 45.1 0 43.35 1.05 41.2 1.05L41.2 1.05Q38.05 1.05 35.9-1.63 33.75-4.3 33.75-8.85L33.75-8.85Q33.75-14.05 35.6-18.55L35.6-18.55Q36.6-20.9 38.47-22.38 40.35-23.85 42.32-23.85 44.3-23.85 45.5-23.23 46.7-22.6 47.42-21.83 48.15-21.05 48.7-19.55 49.25-18.05 49.47-17.1 49.7-16.15 49.85-14.35L49.85-14.35Q50.05-11.95 50.05-10L50.05-10Q46.05-8.9 39.7-8L39.7-8Q39.85-6 40.4-4.8 40.95-3.6 41.7-3.6ZM42.8-18.95L42.8-18.95Q41.7-18.95 40.82-16.75 39.95-14.55 39.8-11.65L39.8-11.65Q42.45-12.2 44.4-12.7L44.4-12.7Q44.4-18.95 42.8-18.95ZM60.05-3.6L60.05-3.6Q61.95-3.6 64.09-7.25L64.09-7.25 67.9-5Q66.95-3.35 66.07-2.2 65.2-1.05 63.45 0 61.7 1.05 59.55 1.05L59.55 1.05Q56.4 1.05 54.25-1.63 52.1-4.3 52.1-8.85L52.1-8.85Q52.1-14.05 53.95-18.55L53.95-18.55Q54.95-20.9 56.82-22.38 58.7-23.85 60.67-23.85 62.65-23.85 63.85-23.23 65.05-22.6 65.77-21.83 66.5-21.05 67.05-19.55 67.59-18.05 67.82-17.1 68.05-16.15 68.2-14.35L68.2-14.35Q68.4-11.95 68.4-10L68.4-10Q64.4-8.9 58.05-8L58.05-8Q58.2-6 58.75-4.8 59.3-3.6 60.05-3.6ZM61.15-18.95L61.15-18.95Q60.05-18.95 59.17-16.75 58.3-14.55 58.15-11.65L58.15-11.65Q60.8-12.2 62.75-12.7L62.75-12.7Q62.75-18.95 61.15-18.95ZM83.44-20.9L83.44-20.9 83.44-16.15Q81.04-16.15 79.74-16.1L79.74-16.1Q79.59-11.1 79.59 0.7L79.59 0.7 73.69 0.15Q73.69-8.6 73.84-15.7L73.84-15.7Q73.09-15.7 70.99-15.45L70.99-15.45 70.24-19.55Q71.44-19.8 73.99-20.2L73.99-20.2Q74.09-23.9 74.39-31L74.39-31 80.34-30.45Q80.04-25.5 79.89-20.85L79.89-20.85Q81.14-20.9 83.44-20.9ZM102.29-35.75L108.54-35.2 108.59-11.95Q108.59-6.2 108.19 0.4L108.19 0.4 102.59-0.15Q96.14-14.8 92.04-22.1L92.04-22.1Q92.09-14.7 92.09 1.5L92.09 1.5 86.24 0.85Q86.09-2.25 86.09-5.15L86.09-5.15Q86.09-17.25 87.44-33.35L87.44-33.35 94.09-32.7Q99.04-19.05 102.99-11.95L102.99-11.95Q102.69-27.05 102.29-35.75L102.29-35.75ZM117.79-9L117.79-9Q117.79-3.35 120.29-3.35L120.29-3.35Q121.39-3.35 122.14-6.53 122.89-9.7 122.89-12.6L122.89-12.6Q122.89-19 120.79-19L120.79-19Q119.44-19 118.61-15.58 117.79-12.15 117.79-9ZM111.94-9.45L111.94-9.45Q111.94-14.1 113.84-18.55L113.84-18.55Q114.84-20.8 116.66-22.23 118.49-23.65 120.74-23.65 122.99-23.65 124.61-22.63 126.24-21.6 127.09-19.9L127.09-19.9Q128.74-16.55 128.74-12.6L128.74-12.6Q128.74-7.15 126.51-2.93 124.29 1.3 120.29 1.3L120.29 1.3Q111.94 1.3 111.94-9.45ZM149.09 0.6L149.09 0.6 144.39 0.2Q143.14-5.3 142.14-10L142.14-10Q140.89-5.55 138.84 0.75L138.84 0.75 133.64 0.2Q130.59-14.7 129.89-23.15L129.89-23.15 135.59-22.6Q136.39-11.65 137.19-5.9L137.19-5.9Q138.99-13 140.79-22.2L140.79-22.2 144.64-21.85Q145.24-13.8 146.49-7.15L146.49-7.15Q148.24-14 150.34-24.95L150.34-24.95 155.74-24.45Q153.54-13.9 149.09 0.6Z" opacity="1" transform="matrix(1,0,0,1,0,0)" fill="#0a3f31" class="wordmark-text-0" data-fill-palette-color="primary" id="text-0"></path></svg></g></svg></g><g transform="matrix(1,0,0,1,0,53.444072044343)"><svg viewBox="0 0 192.00000000000003 7.989225839409279" height="7.989225839409279" width="192.00000000000003"><g transform="matrix(1,0,0,1,0,0)"><svg width="192.00000000000003" viewBox="2 -35.9 1076.54 44.8" height="7.989225839409279" data-palette-color="#0b8b21"><path d="M14.4 0L6.15 0 6.15-13.3 2-13.3 2-19.6 6.15-19.6 6.15-22.5Q6.15-25.95 7.58-28.2 9-30.45 11.45-31.55 13.9-32.65 17-32.65L17-32.65Q19.05-32.65 21.5-32.18 23.95-31.7 25.8-30.6L25.8-30.6 23.95-24.75Q22.9-25.4 21.5-25.73 20.1-26.05 18.75-26.05L18.75-26.05Q14.1-26.05 14.1-22.25L14.1-22.25 14.1-19.65 22.4-19.65 22.4-13.3 14.4-13.3 14.4 0ZM56.8-3.05L50.05 2.3 46.95-1.6Q45.8-0.85 44.25-0.43 42.7 0 40.5 0L40.5 0Q34.9 0 32.1-2.78 29.3-5.55 29.3-10.8L29.3-10.8 29.3-25.6 37.3-25.6 37.3-11.25Q37.3-9 38.5-7.83 39.7-6.65 41.7-6.65L41.7-6.65Q43.75-6.65 44.9-7.83 46.05-9 46.05-11.25L46.05-11.25 46.05-25.6 54.05-25.6 54.05-6.25 56.8-3.05ZM73.4 0.35L73.4 0.35Q70.5 0.35 68.25-0.6 66-1.55 64.72-3.65 63.45-5.75 63.45-9.2L63.45-9.2 63.45-18.8 59.3-18.8 59.3-24.75 63.65-24.75 63.65-31.8 71.65-31.8 71.65-24.75 78.45-24.75 78.45-18.75 71.7-18.75 71.7-9.45Q71.7-7.55 72.62-6.85 73.55-6.15 74.84-6.15L74.84-6.15Q75.65-6.15 76.62-6.33 77.59-6.5 78.15-6.85L78.15-6.85 79.5-0.95Q78.25-0.25 76.62 0.05 75 0.35 73.4 0.35ZM110.49-3.05L103.74 2.3 100.64-1.6Q99.49-0.85 97.94-0.43 96.39 0 94.19 0L94.19 0Q88.59 0 85.79-2.78 82.99-5.55 82.99-10.8L82.99-10.8 82.99-25.6 90.99-25.6 90.99-11.25Q90.99-9 92.19-7.83 93.39-6.65 95.39-6.65L95.39-6.65Q97.44-6.65 98.59-7.83 99.74-9 99.74-11.25L99.74-11.25 99.74-25.6 107.74-25.6 107.74-6.25 110.49-3.05ZM121.99 0L113.49 0 113.49-21.2Q115.24-23.2 117.82-24.55 120.39-25.9 123.74-25.9L123.74-25.9Q127.84-25.9 130.94-23.8L130.94-23.8 128.84-18.05Q128.09-18.55 127.07-18.8 126.04-19.05 125.19-19.05L125.19-19.05Q124.14-19.05 123.27-18.78 122.39-18.5 121.99-18.15L121.99-18.15 121.99 0ZM145.59 0.3L145.59 0.3Q141.59 0.3 138.51-1.3 135.44-2.9 133.69-5.95 131.94-9 131.94-13.3L131.94-13.3Q131.94-19.35 135.31-22.63 138.69-25.9 144.39-25.9L144.39-25.9Q148.39-25.9 150.91-24.38 153.44-22.85 154.64-20.3 155.84-17.75 155.84-14.65L155.84-14.65Q155.84-13.55 155.71-12.38 155.59-11.2 155.34-10.05L155.34-10.05 139.79-10.05Q140.04-7.5 141.91-6.6 143.79-5.7 146.24-5.7L146.24-5.7Q148.29-5.7 149.99-6.18 151.69-6.65 152.74-7.45L152.74-7.45 154.89-2.45Q153.64-1.4 151.16-0.55 148.69 0.3 145.59 0.3ZM139.79-15.1L139.79-15.1 148.84-15.1Q148.84-17.1 147.71-18.48 146.59-19.85 144.34-19.85L144.34-19.85Q142.19-19.85 140.99-18.55 139.79-17.25 139.79-15.1ZM185.83 0.45L185.83 0.45Q181.68 0.45 178.66-1.2 175.63-2.85 173.98-5.9 172.33-8.95 172.33-13.1L172.33-13.1Q172.33-19.35 175.96-22.73 179.58-26.1 185.73-26.1L185.73-26.1Q191.88-26.1 195.53-22.7 199.18-19.3 199.18-13L199.18-13Q199.18-8.9 197.58-5.88 195.98-2.85 192.98-1.2 189.98 0.45 185.83 0.45ZM185.83-6.25L185.83-6.25Q188.33-6.25 189.66-8.1 190.98-9.95 190.98-13L190.98-13Q190.98-16.25 189.56-17.88 188.13-19.5 185.73-19.5L185.73-19.5Q183.33-19.5 181.91-17.88 180.48-16.25 180.48-13.05L180.48-13.05Q180.48-9.95 181.93-8.1 183.38-6.25 185.83-6.25ZM215.58 0L207.33 0 207.33-13.3 203.18-13.3 203.18-19.6 207.33-19.6 207.33-22.5Q207.33-25.95 208.75-28.2 210.18-30.45 212.63-31.55 215.08-32.65 218.18-32.65L218.18-32.65Q220.23-32.65 222.68-32.18 225.13-31.7 226.98-30.6L226.98-30.6 225.13-24.75Q224.08-25.4 222.68-25.73 221.28-26.05 219.93-26.05L219.93-26.05Q215.28-26.05 215.28-22.25L215.28-22.25 215.28-19.65 223.58-19.65 223.58-13.3 215.58-13.3 215.58 0ZM250.98 0L242.98 0 242.98-24.1 250.98-24.1 250.98 0ZM246.98-27.2L246.98-27.2Q244.98-27.2 243.73-28.45 242.48-29.7 242.48-31.55L242.48-31.55Q242.48-33.4 243.73-34.65 244.98-35.9 246.98-35.9L246.98-35.9Q249.03-35.9 250.25-34.65 251.48-33.4 251.48-31.55L251.48-31.55Q251.48-29.7 250.25-28.45 249.03-27.2 246.98-27.2ZM281.62-1.8L275.42 3.45 271.37-0.6 271.37-14.2Q271.37-16.25 270.27-17.35 269.17-18.45 267.07-18.45L267.07-18.45Q266.17-18.45 265.37-18.25 264.57-18.05 263.97-17.7L263.97-17.7 263.97 0 255.97 0 255.97-21.55Q257.87-23.45 261.15-24.63 264.42-25.8 268.27-25.8L268.27-25.8Q273.82-25.8 276.6-23.28 279.37-20.75 279.37-16.45L279.37-16.45 279.37-4.35 281.62-1.8ZM295.42 1L295.42 1Q291.62 1 288.44-0.2 285.27-1.4 283.62-2.8L283.62-2.8 286.17-8.15Q287.42-7.2 289.72-6.35 292.02-5.5 294.42-5.5L294.42-5.5Q296.22-5.5 297.07-6.05 297.92-6.6 297.92-7.55L297.92-7.55Q297.92-8.4 297.27-8.8 296.62-9.2 295.32-9.4L295.32-9.4 292.92-9.8Q288.67-10.5 286.37-12.48 284.07-14.45 284.07-17.8L284.07-17.8Q284.07-19.95 285.14-21.75 286.22-23.55 288.5-24.65 290.77-25.75 294.42-25.75L294.42-25.75Q298.02-25.75 300.85-24.83 303.67-23.9 305.07-22.9L305.07-22.9 303.02-17.55Q302.22-18.1 300.89-18.53 299.57-18.95 298.07-19.2 296.57-19.45 295.22-19.45L295.22-19.45Q292.07-19.45 292.07-17.9L292.07-17.9Q292.07-17.15 292.67-16.68 293.27-16.2 294.02-16.1L294.02-16.1 297.07-15.6Q302.12-14.8 304.02-12.85 305.92-10.9 305.92-7.9L305.92-7.9Q305.92-5.55 304.87-3.53 303.82-1.5 301.52-0.25 299.22 1 295.42 1ZM323.02 0.35L323.02 0.35Q320.12 0.35 317.87-0.6 315.62-1.55 314.34-3.65 313.07-5.75 313.07-9.2L313.07-9.2 313.07-18.8 308.92-18.8 308.92-24.75 313.27-24.75 313.27-31.8 321.27-31.8 321.27-24.75 328.07-24.75 328.07-18.75 321.32-18.75 321.32-9.45Q321.32-7.55 322.24-6.85 323.17-6.15 324.47-6.15L324.47-6.15Q325.27-6.15 326.24-6.33 327.22-6.5 327.77-6.85L327.77-6.85 329.12-0.95Q327.87-0.25 326.24 0.05 324.62 0.35 323.02 0.35ZM357.17-2.55L350.97 2.6 347.81-1.2Q345.47 0.25 341.97 0.25L341.97 0.25Q337.31 0.25 334.72-2.18 332.12-4.6 332.12-8.55L332.12-8.55Q332.12-12.15 334.31-14.13 336.51-16.1 340.72-16.1L340.72-16.1 346.87-16.1 346.87-16.9Q346.87-18.35 345.56-19.07 344.26-19.8 341.87-19.8L341.87-19.8Q340.01-19.8 338.44-19.38 336.87-18.95 335.42-18.1L335.42-18.1 333.47-23.9Q335.37-24.95 337.72-25.43 340.06-25.9 342.42-25.9L342.42-25.9Q348.22-25.9 351.51-23.43 354.81-20.95 354.81-16.8L354.81-16.8 354.81-5.4 357.17-2.55ZM343.22-5.95L343.22-5.95Q345.12-5.95 346.01-7.18 346.92-8.4 346.92-9.65L346.92-9.65 346.92-11.05 343.22-11.05Q341.67-11.05 340.89-10.4 340.12-9.75 340.12-8.6L340.12-8.6Q340.12-7.35 340.99-6.65 341.87-5.95 343.22-5.95ZM386.31-1.8L380.11 3.45 376.06-0.6 376.06-14.2Q376.06-16.25 374.96-17.35 373.86-18.45 371.76-18.45L371.76-18.45Q370.86-18.45 370.06-18.25 369.26-18.05 368.66-17.7L368.66-17.7 368.66 0 360.66 0 360.66-21.55Q362.56-23.45 365.84-24.63 369.11-25.8 372.96-25.8L372.96-25.8Q378.51-25.8 381.29-23.28 384.06-20.75 384.06-16.45L384.06-16.45 384.06-4.35 386.31-1.8ZM402.91 0.35L402.91 0.35Q400.01 0.35 397.76-0.6 395.51-1.55 394.24-3.65 392.96-5.75 392.96-9.2L392.96-9.2 392.96-18.8 388.81-18.8 388.81-24.75 393.16-24.75 393.16-31.8 401.16-31.8 401.16-24.75 407.96-24.75 407.96-18.75 401.21-18.75 401.21-9.45Q401.21-7.55 402.13-6.85 403.06-6.15 404.36-6.15L404.36-6.15Q405.16-6.15 406.13-6.33 407.11-6.5 407.66-6.85L407.66-6.85 409.01-0.95Q407.76-0.25 406.13 0.05 404.51 0.35 402.91 0.35ZM438 0.2L438 0.2Q434.06 0.2 431-1.4 427.95-3 426.23-6.05 424.5-9.1 424.5-13.45L424.5-13.45Q424.5-19.35 427.81-22.8 431.11-26.25 437.36-26.25L437.36-26.25Q439.7-26.25 441.98-25.73 444.25-25.2 446.11-24.1L446.11-24.1 444.15-18.45Q442.15-19.65 439.36-19.65L439.36-19.65Q436.15-19.65 434.48-18.05 432.81-16.45 432.81-13.45L432.81-13.45Q432.81-10.1 434.75-8.25 436.7-6.4 439.9-6.4L439.9-6.4Q441.36-6.4 442.78-6.8 444.2-7.2 445.2-7.95L445.2-7.95 447.4-3Q445.9-1.8 443.65-0.8 441.4 0.2 438 0.2ZM463.4 0.45L463.4 0.45Q459.25 0.45 456.23-1.2 453.2-2.85 451.55-5.9 449.9-8.95 449.9-13.1L449.9-13.1Q449.9-19.35 453.53-22.73 457.15-26.1 463.3-26.1L463.3-26.1Q469.45-26.1 473.1-22.7 476.75-19.3 476.75-13L476.75-13Q476.75-8.9 475.15-5.88 473.55-2.85 470.55-1.2 467.55 0.45 463.4 0.45ZM463.4-6.25L463.4-6.25Q465.9-6.25 467.23-8.1 468.55-9.95 468.55-13L468.55-13Q468.55-16.25 467.13-17.88 465.7-19.5 463.3-19.5L463.3-19.5Q460.9-19.5 459.48-17.88 458.05-16.25 458.05-13.05L458.05-13.05Q458.05-9.95 459.5-8.1 460.95-6.25 463.4-6.25ZM506.9-1.8L500.7 3.45 496.65-0.6 496.65-14.2Q496.65-16.25 495.55-17.35 494.45-18.45 492.35-18.45L492.35-18.45Q491.45-18.45 490.65-18.25 489.85-18.05 489.25-17.7L489.25-17.7 489.25 0 481.25 0 481.25-21.55Q483.15-23.45 486.43-24.63 489.7-25.8 493.55-25.8L493.55-25.8Q499.1-25.8 501.88-23.28 504.65-20.75 504.65-16.45L504.65-16.45 504.65-4.35 506.9-1.8ZM536.05-1.8L529.85 3.45 525.8-0.6 525.8-14.2Q525.8-16.25 524.7-17.35 523.6-18.45 521.5-18.45L521.5-18.45Q520.6-18.45 519.8-18.25 519-18.05 518.4-17.7L518.4-17.7 518.4 0 510.4 0 510.4-21.55Q512.3-23.45 515.57-24.63 518.85-25.8 522.7-25.8L522.7-25.8Q528.25-25.8 531.02-23.28 533.8-20.75 533.8-16.45L533.8-16.45 533.8-4.35 536.05-1.8ZM552.69 0.3L552.69 0.3Q548.69 0.3 545.62-1.3 542.54-2.9 540.79-5.95 539.04-9 539.04-13.3L539.04-13.3Q539.04-19.35 542.42-22.63 545.79-25.9 551.5-25.9L551.5-25.9Q555.5-25.9 558.02-24.38 560.54-22.85 561.75-20.3 562.94-17.75 562.94-14.65L562.94-14.65Q562.94-13.55 562.82-12.38 562.69-11.2 562.44-10.05L562.44-10.05 546.89-10.05Q547.14-7.5 549.02-6.6 550.89-5.7 553.34-5.7L553.34-5.7Q555.39-5.7 557.09-6.18 558.79-6.65 559.84-7.45L559.84-7.45 562-2.45Q560.75-1.4 558.27-0.55 555.79 0.3 552.69 0.3ZM546.89-15.1L546.89-15.1 555.94-15.1Q555.94-17.1 554.82-18.48 553.69-19.85 551.44-19.85L551.44-19.85Q549.29-19.85 548.09-18.55 546.89-17.25 546.89-15.1ZM580.44 0.2L580.44 0.2Q576.49 0.2 573.44-1.4 570.39-3 568.67-6.05 566.94-9.1 566.94-13.45L566.94-13.45Q566.94-19.35 570.24-22.8 573.54-26.25 579.79-26.25L579.79-26.25Q582.14-26.25 584.42-25.73 586.69-25.2 588.54-24.1L588.54-24.1 586.59-18.45Q584.59-19.65 581.79-19.65L581.79-19.65Q578.59-19.65 576.92-18.05 575.24-16.45 575.24-13.45L575.24-13.45Q575.24-10.1 577.19-8.25 579.14-6.4 582.34-6.4L582.34-6.4Q583.79-6.4 585.22-6.8 586.64-7.2 587.64-7.95L587.64-7.95 589.84-3Q588.34-1.8 586.09-0.8 583.84 0.2 580.44 0.2ZM607.44 0.35L607.44 0.35Q604.54 0.35 602.29-0.6 600.04-1.55 598.76-3.65 597.49-5.75 597.49-9.2L597.49-9.2 597.49-18.8 593.34-18.8 593.34-24.75 597.69-24.75 597.69-31.8 605.69-31.8 605.69-24.75 612.49-24.75 612.49-18.75 605.74-18.75 605.74-9.45Q605.74-7.55 606.66-6.85 607.59-6.15 608.89-6.15L608.89-6.15Q609.69-6.15 610.66-6.33 611.64-6.5 612.19-6.85L612.19-6.85 613.54-0.95Q612.29-0.25 610.66 0.05 609.04 0.35 607.44 0.35ZM625.04 0L617.04 0 617.04-24.1 625.04-24.1 625.04 0ZM621.04-27.2L621.04-27.2Q619.04-27.2 617.79-28.45 616.54-29.7 616.54-31.55L616.54-31.55Q616.54-33.4 617.79-34.65 619.04-35.9 621.04-35.9L621.04-35.9Q623.09-35.9 624.31-34.65 625.54-33.4 625.54-31.55L625.54-31.55Q625.54-29.7 624.31-28.45 623.09-27.2 621.04-27.2ZM646.33 0L636.68 0 628.03-25.55 636.28-25.55 641.53-7.25 646.28-25.55 654.33-25.55 646.33 0ZM665.33 0L657.33 0 657.33-24.1 665.33-24.1 665.33 0ZM661.33-27.2L661.33-27.2Q659.33-27.2 658.08-28.45 656.83-29.7 656.83-31.55L656.83-31.55Q656.83-33.4 658.08-34.65 659.33-35.9 661.33-35.9L661.33-35.9Q663.38-35.9 664.61-34.65 665.83-33.4 665.83-31.55L665.83-31.55Q665.83-29.7 664.61-28.45 663.38-27.2 661.33-27.2ZM683.43 0.35L683.43 0.35Q680.53 0.35 678.28-0.6 676.03-1.55 674.75-3.65 673.48-5.75 673.48-9.2L673.48-9.2 673.48-18.8 669.33-18.8 669.33-24.75 673.68-24.75 673.68-31.8 681.68-31.8 681.68-24.75 688.48-24.75 688.48-18.75 681.73-18.75 681.73-9.45Q681.73-7.55 682.65-6.85 683.58-6.15 684.88-6.15L684.88-6.15Q685.68-6.15 686.65-6.33 687.63-6.5 688.18-6.85L688.18-6.85 689.53-0.95Q688.28-0.25 686.65 0.05 685.03 0.35 683.43 0.35ZM707.43 8.9L699.18 8.9 704.08-3.6Q702.93-4.6 701.48-6.4 700.03-8.2 698.83-10.65L698.83-10.65 691.53-25.6 700.03-25.6 706.93-10.8 712.73-25.6 721.23-25.6 707.43 8.9ZM749.57 0L739.62 0 734.22-25.6 742.22-25.6 745.27-8.55 750.02-25.1 758.02-25.1 762.77-8.55 765.82-25.6 773.82-25.6 768.42 0 758.47 0 754.12-15.4 754.02-15.9 753.92-15.4 749.57 0ZM785.82 0L777.82 0 777.82-24.1 785.82-24.1 785.82 0ZM781.82-27.2L781.82-27.2Q779.82-27.2 778.57-28.45 777.32-29.7 777.32-31.55L777.32-31.55Q777.32-33.4 778.57-34.65 779.82-35.9 781.82-35.9L781.82-35.9Q783.87-35.9 785.09-34.65 786.32-33.4 786.32-31.55L786.32-31.55Q786.32-29.7 785.09-28.45 783.87-27.2 781.82-27.2ZM803.92 0.35L803.92 0.35Q801.02 0.35 798.77-0.6 796.52-1.55 795.24-3.65 793.97-5.75 793.97-9.2L793.97-9.2 793.97-18.8 789.82-18.8 789.82-24.75 794.17-24.75 794.17-31.8 802.17-31.8 802.17-24.75 808.97-24.75 808.97-18.75 802.22-18.75 802.22-9.45Q802.22-7.55 803.14-6.85 804.07-6.15 805.37-6.15L805.37-6.15Q806.17-6.15 807.14-6.33 808.12-6.5 808.67-6.85L808.67-6.85 810.02-0.95Q808.77-0.25 807.14 0.05 805.52 0.35 803.92 0.35ZM838.91-2.8L832.86 2.45 828.91-1.6 828.91-14.2Q828.91-16.25 827.81-17.35 826.71-18.45 824.61-18.45L824.61-18.45Q823.71-18.45 822.91-18.25 822.11-18.05 821.51-17.7L821.51-17.7 821.51 0 813.51 0 813.51-32.5 821.46-32.5 821.46-24.15Q822.36-24.55 824.06-24.8 825.76-25.05 827.16-25.05L827.16-25.05Q831.46-25.05 834.16-22.38 836.86-19.7 836.86-14.95L836.86-14.95 836.86-5.1 838.91-2.8ZM863.41 0L854.41 0 857.41-31.8 867.41-31.8 873.96-14.05 874.11-13.45 874.21-14.05 881.11-31.8 891.11-31.8 893.61 0 884.61 0 883.61-19.25 883.46-20.1 883.36-20.1 883.11-19.25 877.11-3 871.11-3 865.06-19.25 864.86-20.1 864.71-20.1 864.56-19.25 863.41 0ZM911.26 0.3L911.26 0.3Q907.26 0.3 904.18-1.3 901.11-2.9 899.36-5.95 897.61-9 897.61-13.3L897.61-13.3Q897.61-19.35 900.98-22.63 904.36-25.9 910.06-25.9L910.06-25.9Q914.06-25.9 916.58-24.38 919.11-22.85 920.31-20.3 921.51-17.75 921.51-14.65L921.51-14.65Q921.51-13.55 921.38-12.38 921.26-11.2 921.01-10.05L921.01-10.05 905.46-10.05Q905.71-7.5 907.58-6.6 909.46-5.7 911.91-5.7L911.91-5.7Q913.96-5.7 915.66-6.18 917.36-6.65 918.41-7.45L918.41-7.45 920.56-2.45Q919.31-1.4 916.83-0.55 914.36 0.3 911.26 0.3ZM905.46-15.1L905.46-15.1 914.51-15.1Q914.51-17.1 913.38-18.48 912.26-19.85 910.01-19.85L910.01-19.85Q907.86-19.85 906.66-18.55 905.46-17.25 905.46-15.1ZM939.15 0.3L939.15 0.3Q935.15 0.3 932.08-1.3 929-2.9 927.25-5.95 925.5-9 925.5-13.3L925.5-13.3Q925.5-19.35 928.88-22.63 932.25-25.9 937.95-25.9L937.95-25.9Q941.95-25.9 944.48-24.38 947-22.85 948.2-20.3 949.4-17.75 949.4-14.65L949.4-14.65Q949.4-13.55 949.28-12.38 949.15-11.2 948.9-10.05L948.9-10.05 933.35-10.05Q933.6-7.5 935.48-6.6 937.35-5.7 939.8-5.7L939.8-5.7Q941.85-5.7 943.55-6.18 945.25-6.65 946.3-7.45L946.3-7.45 948.45-2.45Q947.2-1.4 944.73-0.55 942.25 0.3 939.15 0.3ZM933.35-15.1L933.35-15.1 942.4-15.1Q942.4-17.1 941.28-18.48 940.15-19.85 937.9-19.85L937.9-19.85Q935.75-19.85 934.55-18.55 933.35-17.25 933.35-15.1ZM967 0.35L967 0.35Q964.1 0.35 961.85-0.6 959.6-1.55 958.33-3.65 957.05-5.75 957.05-9.2L957.05-9.2 957.05-18.8 952.9-18.8 952.9-24.75 957.25-24.75 957.25-31.8 965.25-31.8 965.25-24.75 972.05-24.75 972.05-18.75 965.3-18.75 965.3-9.45Q965.3-7.55 966.23-6.85 967.15-6.15 968.45-6.15L968.45-6.15Q969.25-6.15 970.23-6.33 971.2-6.5 971.75-6.85L971.75-6.85 973.1-0.95Q971.85-0.25 970.23 0.05 968.6 0.35 967 0.35ZM985.1 0L976.6 0 976.6-31.8 986.05-31.8 996.6-12.2 996.6-31.8 1005.1-31.8 1005.1 0 995.4 0 985.1-18.85 985.1 0ZM1023.1 0.45L1023.1 0.45Q1018.95 0.45 1015.92-1.2 1012.9-2.85 1011.25-5.9 1009.6-8.95 1009.6-13.1L1009.6-13.1Q1009.6-19.35 1013.22-22.73 1016.85-26.1 1023-26.1L1023-26.1Q1029.15-26.1 1032.8-22.7 1036.45-19.3 1036.45-13L1036.45-13Q1036.45-8.9 1034.85-5.88 1033.25-2.85 1030.25-1.2 1027.25 0.45 1023.1 0.45ZM1023.1-6.25L1023.1-6.25Q1025.6-6.25 1026.92-8.1 1028.25-9.95 1028.25-13L1028.25-13Q1028.25-16.25 1026.82-17.88 1025.4-19.5 1023-19.5L1023-19.5Q1020.6-19.5 1019.17-17.88 1017.75-16.25 1017.75-13.05L1017.75-13.05Q1017.75-9.95 1019.2-8.1 1020.65-6.25 1023.1-6.25ZM1054.29 0L1044.34 0 1038.94-25.6 1046.94-25.6 1049.99-8.55 1054.74-25.1 1062.74-25.1 1067.49-8.55 1070.54-25.6 1078.54-25.6 1073.14 0 1063.19 0 1058.84-15.4 1058.74-15.9 1058.64-15.4 1054.29 0Z" opacity="1" transform="matrix(1,0,0,1,0,0)" fill="#0b8b21" class="slogan-text-1" data-fill-palette-color="secondary" id="text-1"></path></svg></g></svg></g></svg></g></svg></g><g transform="matrix(1,0,0,1,53.54959116232718,0)"><svg viewBox="0 0 84.90081767534566 84.90081767534566" height="84.90081767534566" width="84.90081767534566"><g><svg xmlns="http://www.w3.org/2000/svg" data-name="Layer 1" viewBox="0 0 128 128" x="0" y="0" height="84.90081767534566" width="84.90081767534566" class="icon-icon-0" data-fill-palette-color="accent" id="icon-0"><path d="M64 0a64 64 0 1 0 64 64A64.07 64.07 0 0 0 64 0m0 99a35 35 0 1 1 35-35 35 35 0 0 1-35 35m51.3-33.48a2 2 0 0 1-2.7-0.09l-3.6-3.64a2 2 0 0 1 0-2.79 2 2 0 0 1 2.77 0A48 48 0 1 0 64 112a2 2 0 0 1 0 4 52 52 0 1 1 51.8-56.62 2.09 2.09 0 0 1 3-0.17 2 2 0 0 1 0 2.83Z" fill="#0ed570" data-fill-palette-color="accent"></path><path d="M39 62h-4a2 2 0 0 0 0 4h4a2 2 0 0 0 0-4M87 64a2 2 0 0 0 2 2h4a2 2 0 0 0 0-4h-4a2 2 0 0 0-2 2M64 41a2 2 0 0 0 2-2v-4a2 2 0 0 0-4 0v4a2 2 0 0 0 2 2M64 87a2 2 0 0 0-2 2v4a2 2 0 0 0 4 0v-4a2 2 0 0 0-2-2M44.91 42.08a2 2 0 1 0-2.83 2.83l2.83 2.83a2 2 0 0 0 1.41 0.58 2 2 0 0 0 1.42-3.41ZM83.09 80.26a2 2 0 1 0-2.83 2.83l2.83 2.83a2 2 0 1 0 2.83-2.83ZM83.09 42.08l-2.83 2.83a2 2 0 0 0 1.42 3.41 2 2 0 0 0 1.41-0.58l2.83-2.83a2 2 0 1 0-2.83-2.83M44.91 80.26l-2.83 2.83a2 2 0 1 0 2.83 2.83l2.83-2.83a2 2 0 1 0-2.83-2.83M66 51.3V47a2 2 0 0 0-4 0v15H51a2 2 0 0 0 0 4h0.3A12.87 12.87 0 1 0 66 51.3" fill="#0ed570" data-fill-palette-color="accent"></path></svg></g></svg></g><g></g></svg></g></svg></g></svg></g></svg></g><defs></defs></svg><rect width="320" height="360" fill="none" stroke="none" visibility="hidden"></rect></g></svg></g></svg>